# AST/ASF file generated using VICON BodyLanguage
# -----------------------------------------------
:version 1.10
:name VICON
:units
  mass 1.0
  length 0.45
  angle deg
:documentation
   .ast/.asf automatically generated from VICON data using
   VICON BodyBuilder and BodyLanguage model FoxedUp or BRILLIANT.MOD
:root
   order TX TY TZ RX RY RZ
   axis XYZ
   position 0 0 0  
   orientation 0 0 0 
:bonedata
  begin
     id 1 
     name lhipjoint
     direction 0.692814 -0.645514 0.321437 
     length 2.38754 
     axis 0 0 0  XYZ
  end
  begin
     id 2 
     name lfemur
     direction 0.34202 -0.939693 0  
     length 6.41921  
     axis 0 0 20  XYZ
    dof rx ry rz
    limits (-160.0 20.0)
           (-70.0 70.0)
           (-60.0 70.0)
  end
  begin
     id 3 
     name ltibia
     direction 0.34202 -0.939693 0   
     length 6.98247   
     axis 0 0 20   XYZ
    dof rx
    limits (-10.0 170.0)
  end
  begin
     id 4 
     name lfoot
     direction 0.0947186 -0.260237 0.960888   
     length 1.83034   
     axis -90 7.62852e-016 20   XYZ
    dof rx rz
    limits (-45.0 90.0)
           (-70.0 20.0)
  end
  begin
     id 5 
     name ltoes
     direction 1.53538e-011 -4.21952e-011 1   
     length 0.920499   
     axis -90 7.62852e-016 20   XYZ
    dof rx
    limits (-90.0 20.0)
  end
  begin
     id 6 
     name rhipjoint
     direction -0.631686 -0.693949 0.345555   
     length 2.2209  
     axis 0 0 0  XYZ 
  end
  begin
     id 7 
     name rfemur
     direction -0.34202 -0.939693 0   
     length 6.49542   
     axis 0 0 -20   XYZ
    dof rx ry rz
    limits (-160.0 20.0)
           (-70.0 70.0)
           (-70.0 60.0)
  end
  begin
     id 8 
     name rtibia
     direction -0.34202 -0.939693 0   
     length 7.21712   
     axis 0 0 -20   XYZ
    dof rx
    limits (-10.0 170.0)
 end
 begin
     id 9 
     name rfoot
     direction -0.0825378 -0.226771 0.970444   
     length 1.89724  
     axis -90 -7.62852e-016 -20   XYZ
    dof rx rz
    limits (-45.0 90.0)
           (-20.0 70.0)
  end
  begin
     id 10 
     name rtoes
     direction -1.53515e-011 -4.22016e-011 1   
     length 0.955868   
     axis -90 -7.62852e-016 -20   XYZ
    dof rx
    limits (-90.0 20.0)
  end
  begin
     id 11 
     name lowerback
     direction -0.0104711 0.984802 -0.173368   
     length 1.84931   
     axis 0 0 0   XYZ
    dof rx ry rz
    limits (-20.0 45.0)
           (-30.0 30.0)
           (-30.0 30.0)
  end
  begin
     id 12 
     name upperback
     direction -0.00286433 0.999996 -0.000382853   
     length 1.85768   
     axis 0 0 0   XYZ
    dof rx ry rz
    limits (-20.0 45.0)
           (-30.0 30.0)
           (-30.0 30.0)
  end
  begin
     id 13 
     name thorax
     direction 0.00167534 0.996793 0.0800069   
     length 1.92   
     axis 0 0 0   XYZ
    dof rx ry rz
    limits (-20.0 45.0)
           (-30.0 30.0)
           (-30.0 30.0)
  end
  begin
     id 14 
     name lowerneck
     direction -0.0672491 0.995415 0.068018   
     length 1.58923   
     axis 0 0 0   XYZ
    dof rx ry rz
    limits (-20.0 45.0)
           (-30.0 30.0)
           (-30.0 30.0)
  end
  begin
     id 15 
     name upperneck
     direction 0.0958019 0.982476 -0.159884   
     length 1.60189   
     axis 0 0 0   XYZ
    dof rx ry rz
    limits (-20.0 45.0)
           (-30.0 30.0)
           (-30.0 30.0)
  end
  begin
     id 16
     name head
     direction 0.032989 0.997338 -0.0650226  
     length 1.61681  
     axis 0 0 0   XYZ
    dof rx ry rz
    limits (-20.0 45.0)
           (-30.0 30.0)
           (-30.0 30.0)
  end
  begin
     id 17 
     name lclavicle
     direction 0.954279 0.298875 -0.00496069  
     length 2.99449  
     axis 0 0 0   XYZ
    dof ry rz
    limits (-20.0 10.0)
           (0.0 20.0)
  end
  begin
     id 18 
     name lhumerus
     direction 1 -4.48985e-011 -4.2057e-027   
     length 4.79185   
     axis 180 -30 -90   XYZ
    dof rx ry rz
    limits (-60.0 90.0)
           (-90.0 90.0)
           (-90.0 90.0)
  end
  begin
     id 19
     name lradius
     direction 1 -4.48945e-011 1.15441e-028   
     length 2.65553   
     axis 180 -30 -90   XYZ
    dof rx
    limits (-10.0 170.0)
  end
  begin
     id 20
     name lwrist
     direction 1 -4.4899e-011 4.8894e-028   
     length 1.32777   
     axis -2.56392e-016 90 90   XYZ
    dof ry
    limits (-180.0 0.0)
 end
  begin
     id 21 
     name lhand
     direction 1 -4.48908e-011 9.7788e-028   
     length 0.743904   
     axis -6.23971e-016 90 90   XYZ
    dof rx rz
    limits (-90.0 90.0)
           (-45.0 45.0)
  end
  begin
     id 22 
     name lfingers
     direction 1 -4.49068e-011 1.95576e-027   
     length 0.599754   
     axis -1.24794e-015 90 90   XYZ
    dof rx
    limits (0.0 90.0)
  end
  begin
     id 23
     name lthumb
     direction 0.707107 -6.34883e-011 0.707107   
     length 0.861131   
     axis -90 45 2.85299e-015   XYZ
    dof rx rz
    limits (-45.0 45.0)
           (-45.0 45.0)
  end
  begin
     id 24 
     name rclavicle
     direction -0.957921 0.286916 0.00811568   
     length 3.06817  
     axis 0 0 0   XYZ 
    dof ry rz
    limits (-10.0 20.0)
           (-20.0 0.0)
  end
  begin
     id 25 
     name rhumerus
     direction -1 -4.48971e-011 -3.07942e-027  
     length 4.77254   
     axis 180 30 90   XYZ
    dof rx ry rz
    limits (-90.0 60.0)
           (-90.0 90.0)
           (-90.0 90.0)
  end
  begin
     id 26 
     name rradius
     direction -1 -4.48957e-011 -9.6815e-028   
     length 2.75995   
     axis 180 30 90   XYZ
    dof rx
    limits (-10.0 170.0)
  end
  begin
     id 27 
     name rwrist
     direction -1 -4.48979e-011 4.8894e-028   
     length 1.37997   
     axis -2.56392e-016 -90 -90   XYZ
    dof ry
    limits (-180.0 0.0)
  end
  begin
     id 28
     name rhand
     direction -1 -4.48906e-011 9.7788e-028   
     length 0.701619   
     axis -6.23971e-016 -90 -90   XYZ
    dof rx rz
    limits (-90.0 90.0)
           (-45.0 45.0)
  end
  begin
     id 29
     name rfingers
     direction -1 -4.49018e-011 1.95576e-027   
     length 0.565663   
     axis -1.24794e-015 -90 -90   XYZ
    dof rx
    limits (0.0 90.0)
  end
  begin
     id 30
     name rthumb
     direction -0.707107 -6.34881e-011 0.707107   
     length 0.812183   
     axis -90 -45 -2.85299e-015   XYZ
    dof rx rz
    limits (-45.0 45.0)
           (-45.0 45.0)
  end
:hierarchy
  begin
    root lhipjoint rhipjoint lowerback
    lhipjoint lfemur
    lfemur ltibia
    ltibia lfoot
    lfoot ltoes
    rhipjoint rfemur
    rfemur rtibia
    rtibia rfoot
    rfoot rtoes
    lowerback upperback
    upperback thorax
    thorax lowerneck lclavicle rclavicle
    lowerneck upperneck
    upperneck head
    lclavicle lhumerus
    lhumerus lradius
    lradius lwrist
    lwrist lhand lthumb
    lhand lfingers
    rclavicle rhumerus
    rhumerus rradius
    rradius rwrist
    rwrist rhand rthumb
    rhand rfingers
  end

#!OML:ASF F:\VICON\USERDATA\INSTALL\rory3\rory3.ASF
:FULLY-SPECIFIED
:DEGREES
1445
root -0.671434 15.7822 -0.845845 0.456795 36.4811 3.19026
lowerback 18.9308 0.475756 2.99878
upperback 6.34034 1.54445 3.94044
thorax -3.80064 0.820696 2.14628
lowerneck -9.36664 -5.17075 -10.1023
upperneck 15.4507 -6.8797 9.01715
head 6.91585 -3.16281 3.96483
rclavicle -4.05521e-014 3.18055e-014
rhumerus 3.59766 11.2503 -84.3072
rradius 85.8549
rwrist 25.6077
rhand 27.5264 8.73252
rfingers 7.12502
rthumb 51.4699 -11.6828
lclavicle -4.05521e-014 3.18055e-014
lhumerus 9.43585 32.4893 47.139
lradius 100.664
lwrist 9.69882
lhand 8.08722 31.0906
lfingers 7.12502
lthumb 33.31 58.0249
rfemur -7.38078 -12.0362 16.9811
rtibia 34.0819
rfoot -23.8914 -24.0949
rtoes 0.223172
lfemur -15.8518 -20.693 -17.3191
ltibia 21.8467
lfoot -0.256193 -9.31238
ltoes -5.29162
1446
root -0.672325 15.7851 -0.843384 0.308271 36.3604 2.94041
lowerback 19.084 0.440023 2.98879
upperback 6.47968 1.49227 3.80062
thorax -3.72686 0.797634 2.01367
lowerneck -9.12357 -5.26009 -10.3128
upperneck 15.4732 -7.00352 9.09562
head 6.90367 -3.23392 4.01767
rclavicle -3.57812e-014 7.31528e-014
rhumerus 3.64077 11.1267 -84.3077
rradius 85.9622
rwrist 25.5428
rhand 27.4894 8.75013
rfingers 7.12502
rthumb 51.4363 -11.6845
lclavicle -3.57812e-014 7.31528e-014
lhumerus 9.45835 32.2707 47.4076
lradius 100.69
lwrist 9.72348
lhand 7.94956 31.1211
lfingers 7.12502
lthumb 33.1791 58.0833
rfemur -7.32434 -12.0795 17.1898
rtibia 33.9503
rfoot -23.8017 -23.9822
rtoes 0.204988
lfemur -15.8634 -20.752 -17.0772
ltibia 21.9317
lfoot -0.493175 -9.15406
ltoes -5.85828
1447
root -0.673032 15.7907 -0.839522 -0.157743 36.1943 2.38791
lowerback 19.3316 0.378773 3.22927
upperback 6.68633 1.46018 3.70448
thorax -3.62458 0.787591 1.78117
lowerneck -8.87814 -5.33804 -10.5055
upperneck 15.4438 -7.12021 9.21607
head 6.87485 -3.29788 4.08202
rclavicle 6.36111e-015 -2.54444e-014
rhumerus 3.72919 11.0885 -84.3454
rradius 86.0325
rwrist 25.4719
rhand 27.267 8.6617
rfingers 7.12502
rthumb 51.2339 -11.8882
lclavicle 6.36111e-015 -2.54444e-014
lhumerus 9.43294 32.0648 47.5788
lradius 100.777
lwrist 9.70328
lhand 7.73209 30.9604
lfingers 7.12502
lthumb 32.9723 57.9664
rfemur -7.07305 -12.0033 17.6615
rtibia 33.7497
rfoot -23.7077 -23.9549
rtoes 0.276737
lfemur -15.7054 -20.733 -16.6155
ltibia 22.0506
lfoot -0.738748 -9.04323
ltoes -6.27787
1448
root -0.676229 15.7947 -0.833566 -0.338395 36.0108 2.09664
lowerback 19.4986 0.359161 3.27276
upperback 6.81903 1.43842 3.5348
thorax -3.56306 0.780343 1.57982
lowerneck -8.56586 -5.40726 -10.7519
upperneck 15.4036 -7.23457 9.4042
head 6.83533 -3.36047 4.17934
rclavicle 7.23576e-014 -6.04305e-014
rhumerus 3.7719 10.9556 -84.4273
rradius 86.0118
rwrist 25.5756
rhand 26.9864 9.08263
rfingers 7.12502
rthumb 50.9784 -11.6108
lclavicle 7.23576e-014 -6.04305e-014
lhumerus 9.4023 31.8453 47.6311
lradius 100.896
lwrist 9.83367
lhand 7.70543 30.9954
lfingers 7.12502
lthumb 32.9469 58.0068
rfemur -6.9827 -11.915 17.9465
rtibia 33.551
rfoot -23.5763 -23.9428
rtoes 0.426339
lfemur -15.7003 -20.7533 -16.3172
ltibia 22.1505
lfoot -0.935421 -8.91956
ltoes -6.72502
1449
root -0.676244 15.7963 -0.829037 -0.0943434 35.92 2.21305
lowerback 19.5174 0.326258 3.08004
upperback 6.8823 1.34004 3.22605
thorax -3.50185 0.733177 1.38166
lowerneck -8.33325 -5.47203 -10.9236
upperneck 15.4243 -7.35251 9.59908
head 6.82749 -3.41789 4.26531
rclavicle 2.10712e-014 -1.74931e-014
rhumerus 3.82845 10.7774 -84.5524
rradius 85.9564
rwrist 25.5952
rhand 26.6458 9.52223
rfingers 7.12502
rthumb 50.6677 -11.3427
lclavicle 2.10712e-014 -1.74931e-014
lhumerus 9.43939 31.6296 47.6588
lradius 101
lwrist 9.96255
lhand 7.76096 31.1349
lfingers 7.12502
lthumb 32.9997 58.1352
rfemur -7.12192 -11.9764 17.8666
rtibia 33.4407
rfoot -23.4122 -23.8874
rtoes 0.0418809
lfemur -15.8779 -20.8778 -16.3329
ltibia 22.1884
lfoot -0.985481 -8.72084
ltoes -6.43652
1450
root -0.675627 15.7997 -0.82495 0.101792 35.8232 2.27123
lowerback 19.5011 0.30232 2.85098
upperback 6.98455 1.24831 2.97607
thorax -3.38332 0.689727 1.26603
lowerneck -8.20503 -5.54678 -11.0337
upperneck 15.4807 -7.46853 9.68854
head 6.84347 -3.47617 4.3045
rclavicle -1.59028e-014 -3.33958e-014
rhumerus 3.98424 10.6695 -84.609
rradius 85.9496
rwrist 25.5351
rhand 26.5431 9.53816
rfingers 7.12502
rthumb 50.5739 -11.3779
lclavicle -1.59028e-014 -3.33958e-014
lhumerus 9.47151 31.4957 47.741
lradius 101.091
lwrist 10.0001
lhand 7.89187 31.1421
lfingers 7.12502
lthumb 33.1242 58.116
rfemur -7.25216 -12.0415 17.8392
rtibia 33.3896
rfoot -23.4212 -23.6552
rtoes 0.112444
lfemur -16.0307 -20.9425 -16.3109
ltibia 22.1793
lfoot -1.03503 -8.55749
ltoes -6.40968
1451
root -0.678145 15.8021 -0.821585 0.220763 35.6956 2.27668
lowerback 19.5471 0.318431 2.62184
upperback 7.09014 1.21604 2.78336
thorax -3.29482 0.674919 1.19813
lowerneck -7.96872 -5.6253 -11.2193
upperneck 15.4314 -7.59032 9.82059
head 6.81217 -3.54191 4.37123
rclavicle 3.29983e-014 -4.13472e-014
rhumerus 4.07162 10.5302 -84.6419
rradius 86.0856
rwrist 25.6784
rhand 26.8733 9.53958
rfingers 7.12502
rthumb 50.8753 -11.2112
lclavicle 3.29983e-014 -4.13472e-014
lhumerus 9.44162 31.4109 47.8732
lradius 101.253
lwrist 10.2623
lhand 8.13327 31.0421
lfingers 7.12502
lthumb 33.3537 57.967
rfemur -7.32984 -12.0423 17.8856
rtibia 33.3439
rfoot -23.5175 -23.2973
rtoes 1.29326
lfemur -16.1371 -20.9592 -16.2468
ltibia 22.1606
lfoot -1.10695 -8.41779
ltoes -6.67151
